<?xml version="1.0" encoding="UTF-8"?>
<svg id="uuid-e5dddbd3-0ccb-49c3-b752-be17d30c1acf" data-name="Layer 1" xmlns="http://www.w3.org/2000/svg" viewBox="0 0 383.97 104.61">
  <g>
    <rect x="12.54" y="78.03" width="18.98" height="9.09" transform="translate(-51.94 39.77) rotate(-45)" style="fill: #f9f9f9;"/>
    <rect y="47.76" width="18.99" height="9.09" style="fill: #f9f9f9;"/>
    <rect x="17.49" y="12.54" width="9.09" height="18.99" transform="translate(-9.13 22.03) rotate(-45)" style="fill: #f9f9f9;"/>
    <rect x="47.76" width="9.09" height="18.99" style="fill: #f9f9f9;"/>
    <rect x="73.08" y="17.49" width="18.99" height="9.09" transform="translate(8.61 64.84) rotate(-45)" style="fill: #f9f9f9;"/>
    <rect x="85.62" y="47.76" width="18.99" height="9.09" style="fill: #f9f9f9;"/>
    <rect x="47.76" y="85.62" width="9.09" height="18.99" style="fill: #f9f9f9;"/>
    <path d="M74.56,52.3c0-12.27-9.99-22.26-22.26-22.26s-22.26,9.99-22.26,22.26,9.99,22.26,22.26,22.26c4.5,0,8.68-1.34,12.18-3.65l21.59,21.59,6.43-6.43-21.59-21.59c2.3-3.5,3.64-7.69,3.64-12.18ZM52.3,65.47c-7.26,0-13.17-5.91-13.17-13.17s5.91-13.17,13.17-13.17,13.17,5.91,13.17,13.17-5.91,13.17-13.17,13.17Z" style="fill: #f9f9f9;"/>
  </g>
  <g>
    <polygon points="189.44 45.78 155.64 45.78 155.64 18.12 144.5 18.12 144.5 85.33 155.64 85.33 155.64 55.95 189.44 55.95 189.44 85.33 200.58 85.33 200.58 18.12 189.44 18.12 189.44 45.78" style="fill: #f9f9f9;"/>
    <path d="M251.71,49.04c-2.02-4.16-4.75-7.35-8.21-9.55-3.46-2.21-7.33-3.31-11.62-3.31-4.74,0-8.95,1.07-12.63,3.22-3.68,2.14-6.58,5.11-8.69,8.88-2.11,3.78-3.17,8.13-3.17,13.06s1.04,9.28,3.12,13.06c2.08,3.78,4.93,6.74,8.55,8.88,3.62,2.14,7.76,3.22,12.43,3.22,3.65,0,6.9-.51,9.75-1.54,2.85-1.02,5.31-2.5,7.39-4.42,2.08-1.92,3.79-4.16,5.14-6.72l-9.51-4.03c-1.09,2.11-2.59,3.83-4.51,5.14-1.92,1.31-4.35,1.97-7.3,1.97-3.65,0-6.8-1.15-9.46-3.46-2.66-2.3-4.15-5.47-4.46-9.51h36.2c0-5.76-1.01-10.72-3.02-14.88ZM219.21,55.66c.26-2.3,1.02-4.22,2.3-5.76,1.28-1.54,2.83-2.67,4.66-3.41,1.82-.73,3.63-1.1,5.42-1.1s3.62.38,5.28,1.15c1.66.77,3.07,1.91,4.22,3.41,1.15,1.5,1.82,3.41,2.02,5.71h-23.91Z" style="fill: #f9f9f9;"/>
    <rect x="258.57" y="18.12" width="10.75" height="67.21" style="fill: #f9f9f9;"/>
    <rect x="277.49" y="37.33" width="10.66" height="48.01" style="fill: #f9f9f9;"/>
    <path d="M331.07,39.39c-3.71-2.14-8-3.22-12.87-3.22s-8.96,1.07-12.67,3.22c-3.71,2.14-6.61,5.11-8.69,8.88-2.08,3.78-3.12,8.13-3.12,13.06s1.06,9.28,3.17,13.06c2.11,3.78,5.02,6.74,8.74,8.88,3.71,2.14,8,3.22,12.87,3.22s8.94-1.07,12.63-3.22c3.68-2.14,6.56-5.1,8.64-8.88,2.08-3.78,3.12-8.13,3.12-13.06s-1.04-9.28-3.12-13.06c-2.08-3.78-4.98-6.74-8.69-8.88ZM330.3,69.25c-1.15,2.27-2.74,4.07-4.75,5.38-2.02,1.31-4.37,1.97-7.06,1.97s-5.07-.66-7.15-1.97c-2.08-1.31-3.71-3.1-4.9-5.38-1.19-2.27-1.78-4.91-1.78-7.92s.58-5.65,1.73-7.92c1.15-2.27,2.75-4.06,4.8-5.38,2.05-1.31,4.42-1.97,7.11-1.97s5.07.66,7.15,1.97c2.08,1.31,3.7,3.11,4.85,5.38,1.15,2.27,1.73,4.91,1.73,7.92s-.58,5.65-1.73,7.92Z" style="fill: #f9f9f9;"/>
    <path d="M382.53,65.99c-.96-2.02-2.43-3.84-4.42-5.47-1.99-1.63-4.55-2.83-7.68-3.6l-5.67-1.34c-2.05-.51-3.62-1.17-4.71-1.97-1.09-.8-1.63-1.68-1.63-2.64,0-1.66.61-2.96,1.82-3.89,1.21-.93,2.91-1.39,5.09-1.39s4.16.43,5.95,1.3c1.79.86,3.01,2.1,3.65,3.7l8.93-4.03c-.71-2.11-1.95-3.95-3.74-5.52-1.79-1.57-3.92-2.78-6.39-3.65-2.46-.86-5.17-1.3-8.11-1.3-5.83,0-10.29,1.31-13.39,3.94-3.11,2.62-4.66,6.34-4.66,11.14,0,3.26,1.28,6.16,3.84,8.69,2.56,2.53,6.11,4.37,10.66,5.52l4.51,1.25c2.11.51,3.75,1.17,4.9,1.97,1.15.8,1.73,1.94,1.73,3.41s-.75,2.74-2.26,3.6c-1.5.86-3.5,1.3-6,1.3-2.3,0-4.4-.61-6.29-1.82-1.89-1.22-3.31-2.72-4.27-4.51l-9.31,4.13c1.02,2.37,2.5,4.43,4.42,6.19,1.92,1.76,4.22,3.12,6.91,4.08s5.63,1.44,8.83,1.44c3.58,0,6.78-.59,9.6-1.78,2.82-1.18,5.04-2.86,6.67-5.04,1.63-2.18,2.45-4.71,2.45-7.59,0-2.05-.48-4.08-1.44-6.1Z" style="fill: #f9f9f9;"/>
    <rect x="277.49" y="18.12" width="10.66" height="10.66" style="fill: #f9f9f9;"/>
  </g>
</svg>